<?xml version="1.0" encoding="utf-8" ?>
<svg xmlns="http://www.w3.org/2000/svg" xmlns:xlink="http://www.w3.org/1999/xlink" width="389" height="401">
	<path fill="#DEDDDD" d="M127.953 378.871C127.809 378.711 127.702 378.548 127.619 378.348C127.189 377.309 126.98 363.991 127.346 363.138C127.758 362.18 129.318 361.72 130.218 361.343Q129.914 362.15 129.654 362.972C128.609 363.612 128.262 364.063 127.968 365.254C127.372 367.663 127.583 376.176 127.953 378.871Z"/>
	<path fill="#DEDDDD" fill-opacity="0.98039216" d="M233.09 377.179C233.809 376.137 233.356 368.036 233.342 366.272C233.591 366.582 233.818 366.862 234.101 367.141C234.085 365.979 234.154 365.024 234.45 363.895C234.687 366.455 234.511 369.046 234.534 371.615C234.552 373.717 234.831 375.962 234.595 378.049Q234.532 378.584 234.365 379.096Q234.199 379.608 233.936 380.078L232.93 378.853L233.09 377.179Z"/>
	<path fill="#CECED0" d="M222.503 381.455C225.837 380.766 230.139 381.094 232.93 378.853L233.936 380.078C233.216 381.432 232.602 381.987 231.129 382.439C225.988 384.019 218.788 383.321 213.403 383.184L212.291 382.878C212.541 382.748 212.449 382.764 212.705 382.74C213.916 382.627 214.945 382.53 216.107 382.133L216.409 382.027C218.442 381.965 220.499 381.801 222.503 381.455Z"/>
	<path fill="#CECED0" d="M130.218 361.343C130.241 361.311 130.258 361.274 130.285 361.245C132.564 358.782 142.463 359.92 145.858 359.822C157.447 359.601 169.095 359.845 180.689 359.909C187.967 359.949 195.318 359.675 202.586 360.021C206.973 359.858 211.37 360.141 215.759 360.078C220.57 360.009 225.883 359.114 230.636 359.942Q230.997 360.008 231.345 360.124Q231.693 360.241 232.021 360.405Q232.35 360.569 232.651 360.778Q232.953 360.987 233.222 361.237C233.973 361.941 234.342 362.89 234.45 363.895C234.154 365.024 234.085 365.979 234.101 367.141C233.818 366.862 233.591 366.582 233.342 366.272C233.356 368.036 233.809 376.137 233.09 377.179C232.924 374.061 233.118 370.926 233.082 367.803C233.065 366.305 233.185 364.548 232.045 363.427C231.986 363.394 231.929 363.36 231.869 363.33C228.596 361.682 223.735 361.36 220.09 361.107C215.687 360.8 211.221 360.93 206.808 360.929L185.389 360.94L159.946 360.958C150.949 360.967 138.13 359.986 129.654 362.972Q129.914 362.15 130.218 361.343Z"/>
	<path fill="#DEDDDD" d="M145.858 359.822C157.447 359.601 169.095 359.845 180.689 359.909C187.967 359.949 195.318 359.675 202.586 360.021C203.233 360.696 207.914 360.568 209.12 360.612C187.596 360.655 165.979 361.044 144.465 360.598L145.858 359.822Z"/>
	<path fill="#DEDDDD" d="M154.427 386.891L154.734 386.873C156.142 386.78 157.367 386.956 158.752 387.202C159.143 388.993 159.663 391.156 158.747 392.87C158.313 393.683 157.744 393.954 156.882 394.217C154.649 394.899 144.983 395.299 143.097 394.305C142.539 394.49 142.02 394.572 141.429 394.556C140.551 394.532 139.791 394.43 139.185 393.729C137.832 392.164 138.207 389.357 138.297 387.429C143.501 386.547 149.143 387.069 154.427 386.891Z"/>
	<path fill="#DEDDDD" d="M218.081 386.86C220.318 386.681 223.454 386.676 225.566 387.384C225.784 387.594 226.051 387.76 226.14 388.055C226.619 389.641 226.079 391.636 225.294 393.065C224.833 393.904 224.403 394.408 223.464 394.675C221.675 395.184 215.067 395.473 213.561 394.608C213.32 394.763 213.139 394.887 212.854 394.95C210.957 395.367 208.443 395.368 206.85 394.174C205.644 393.27 204.965 391.794 204.797 390.318C204.702 389.487 204.768 388.514 205.358 387.865C206.594 386.505 215.778 386.997 218.081 386.86Z"/>
	<path fill="#DEDDDD" d="M209.866 10.8606C213.887 10.7228 221.136 9.7811 224.497 12.1516C225.542 12.8886 226.576 14.0919 226.778 15.3945C226.892 16.1321 226.707 16.8306 226.247 17.4195C225.06 18.9412 223.323 19.019 221.563 19.2291C218.498 19.2888 208.329 19.9916 206.103 18.6833C205.275 18.197 204.722 17.4464 204.523 16.5066C204.255 15.2456 204.645 13.9214 205.392 12.8974C206.56 11.2967 208.036 11.1015 209.866 10.8606Z"/>
	<path fill="#DEDDDD" d="M141.649 11.0464C145.895 10.7874 154.625 10.1879 158.31 12.0102C158.95 13.3842 159.397 14.8527 159.525 16.3701C159.598 17.2442 159.479 18.4059 158.818 19.0638C158.226 19.6529 157.337 19.5191 156.562 19.5473C153.909 19.5846 140.842 19.9148 139.419 19.1497C138.798 18.8165 138.403 18.2745 138.209 17.6025C137.813 16.2295 138.192 13.6221 138.983 12.412C139.587 11.4873 140.654 11.3015 141.649 11.0464Z"/>
	<path fill="#DEDDDD" d="M43.738 270.315C48.1683 269.912 53.1993 271.025 56.9628 273.375C61.5811 276.26 65.1309 281.192 66.3126 286.517C67.4901 291.824 66.2667 297.956 63.286 302.484C59.6149 308.062 55.2008 310.114 48.9411 311.411C44.2693 312.281 39.2196 311.092 35.2502 308.525C30.6176 305.528 27.039 300.643 25.8896 295.216C24.7802 289.977 26.1284 284.042 29.0798 279.61C32.6096 274.309 37.6233 271.578 43.738 270.315Z"/>
	<path fill="#DEDDDD" d="M312.061 89.315C316.759 88.9461 321.104 89.4926 325.104 92.1548C330.104 95.4833 334.139 101.258 335.264 107.182C336.206 112.147 335.215 116.455 332.371 120.618C329.347 125.044 323.817 129.486 318.459 130.487C313.299 131.412 307.813 130.179 303.434 127.322Q303.006 127.042 302.592 126.741Q302.178 126.439 301.78 126.118Q301.382 125.797 301 125.456Q300.618 125.115 300.254 124.756Q299.89 124.396 299.544 124.019Q299.197 123.642 298.871 123.249Q298.544 122.855 298.237 122.445Q297.93 122.036 297.644 121.611Q297.358 121.187 297.093 120.749Q296.828 120.311 296.586 119.861Q296.343 119.41 296.124 118.948Q295.904 118.486 295.707 118.013Q295.511 117.541 295.338 117.059Q295.165 116.577 295.016 116.088Q294.868 115.598 294.743 115.101Q294.619 114.605 294.52 114.103Q294.417 113.589 294.34 113.07Q294.263 112.551 294.212 112.029Q294.16 111.507 294.135 110.983Q294.11 110.459 294.11 109.935Q294.111 109.41 294.138 108.886Q294.165 108.362 294.217 107.84Q294.27 107.319 294.349 106.8Q294.427 106.281 294.531 105.767Q294.636 105.253 294.765 104.745Q294.895 104.237 295.049 103.735Q295.204 103.234 295.383 102.741Q295.563 102.248 295.766 101.765Q295.97 101.282 296.197 100.809Q296.425 100.336 296.675 99.8754Q296.926 99.4146 297.199 98.9667Q297.472 98.5189 297.767 98.0852C301.091 93.1907 306.337 90.375 312.061 89.315Z"/>
	<path fill="#DEDDDD" d="M43.766 89.3055C48.1735 88.6294 53.2654 89.8676 56.9841 92.275C61.6841 95.3176 65.3275 100.292 66.4555 105.805Q66.6502 106.793 66.7483 107.795Q66.8464 108.796 66.8469 109.803Q66.8474 110.81 66.7503 111.812Q66.6532 112.814 66.4594 113.802Q66.2656 114.789 65.977 115.754Q65.6883 116.718 65.3076 117.65Q64.9268 118.582 64.4575 119.473Q63.9881 120.363 63.4347 121.204C59.9383 126.47 54.4433 129.479 48.3557 130.696C43.7799 131.158 40.0624 130.428 36.0653 128.07C30.9911 125.076 27.5126 120.511 26.0756 114.79Q25.9566 114.311 25.8612 113.826Q25.7659 113.341 25.6944 112.852Q25.623 112.363 25.5756 111.872Q25.5282 111.38 25.505 110.886Q25.4819 110.393 25.483 109.899Q25.484 109.405 25.5094 108.911Q25.5347 108.418 25.5842 107.926Q25.6337 107.435 25.7073 106.946Q25.7809 106.458 25.8784 105.973Q25.9759 105.489 26.097 105.01Q26.2181 104.531 26.3626 104.059Q26.5071 103.586 26.6746 103.122Q26.8422 102.657 27.0323 102.201Q27.2224 101.745 27.4347 101.299Q27.647 100.853 27.8809 100.417Q28.1148 99.9823 28.3698 99.5592C31.8621 93.7882 37.4099 90.823 43.766 89.3055Z"/>
	<path fill="#DEDDDD" d="M312.928 270.351C312.99 270.342 313.051 270.331 313.112 270.324C318.226 269.806 323.445 271.754 327.407 274.908C332.061 278.612 335.004 283.349 335.625 289.324C336.209 294.946 334.012 299.886 330.468 304.154C326.933 308.412 322.535 311.105 317.005 311.648C311.884 312.205 306.698 310.905 302.63 307.729C298.031 304.138 294.847 298.766 294.21 292.947Q294.157 292.455 294.128 291.96Q294.099 291.466 294.095 290.971Q294.091 290.476 294.112 289.981Q294.132 289.486 294.177 288.993Q294.223 288.5 294.292 288.01Q294.362 287.519 294.456 287.033Q294.549 286.547 294.667 286.066Q294.785 285.585 294.927 285.111Q295.069 284.636 295.234 284.169Q295.399 283.702 295.587 283.244Q295.776 282.786 295.986 282.338Q296.197 281.89 296.43 281.453Q296.663 281.016 296.917 280.591Q297.171 280.166 297.446 279.754Q297.721 279.343 298.016 278.945Q298.311 278.547 298.626 278.165C302.296 273.622 307.151 270.981 312.928 270.351Z"/>
	<path d="M129.654 362.972C138.13 359.986 150.949 360.967 159.946 360.958L185.389 360.94L206.808 360.929C211.221 360.93 215.687 360.8 220.09 361.107C223.735 361.36 228.596 361.682 231.869 363.33C231.929 363.36 231.986 363.394 232.045 363.427C233.185 364.548 233.065 366.305 233.082 367.803C233.118 370.926 232.924 374.061 233.09 377.179L232.93 378.853C230.139 381.094 225.837 380.766 222.503 381.455C220.499 381.801 218.442 381.965 216.409 382.027L216.107 382.133C214.945 382.53 213.916 382.627 212.705 382.74C212.449 382.764 212.541 382.748 212.291 382.878L213.403 383.184C209.797 383.266 206.188 383.05 202.581 383.035C198.52 383.017 194.398 383.213 190.346 382.945L154.749 382.893C149.49 382.878 144.217 383.259 138.961 383.043C136.665 383.279 133.45 383.029 131.284 382.159C129.668 381.511 128.647 380.447 127.953 378.871C127.583 376.176 127.372 367.663 127.968 365.254C128.262 364.063 128.609 363.612 129.654 362.972ZM129.236 364.208Q129.294 371.517 129.211 378.826C140.061 381.327 148.225 381.018 159.221 381.013L183.363 381.001C196.125 380.994 209.104 381.547 221.822 380.64C224.296 379.781 228.732 379.698 232.02 378.699C232.019 376.35 232.556 365.434 231.594 364.027C228.216 362.75 224.081 362.369 220.485 362.14C215.514 361.824 210.445 362.01 205.461 362.009L179.633 362.007L154.938 362.014C149.885 362.017 144.765 361.845 139.725 362.206C136.228 362.457 132.49 362.876 129.236 364.208ZM142.5 382.044L142.547 382.368C141.355 382.604 140.137 382.749 138.961 383.043C144.217 383.259 149.49 382.878 154.749 382.893L190.346 382.945L189.259 382.398L189.434 382.113L142.5 382.044ZM189.434 382.113L189.259 382.398L190.346 382.945C194.398 383.213 198.52 383.017 202.581 383.035C206.188 383.05 209.797 383.266 213.403 383.184L212.291 382.878C212.541 382.748 212.449 382.764 212.705 382.74C213.916 382.627 214.945 382.53 216.107 382.133L216.409 382.027C207.45 381.8 198.4 382.013 189.434 382.113Z"/>
	<path fill="#DEDDDD" d="M127.953 378.871C130.172 381.042 139.285 381.777 142.5 382.044L142.547 382.368C141.355 382.604 140.137 382.749 138.961 383.043C136.665 383.279 133.45 383.029 131.284 382.159C129.668 381.511 128.647 380.447 127.953 378.871Z"/>
	<path fill="#DEDDDD" fill-opacity="0.96862745" d="M189.434 382.113C198.4 382.013 207.45 381.8 216.409 382.027L216.107 382.133C214.945 382.53 213.916 382.627 212.705 382.74C212.449 382.764 212.541 382.748 212.291 382.878L213.403 383.184C209.797 383.266 206.188 383.05 202.581 383.035C198.52 383.017 194.398 383.213 190.346 382.945L189.259 382.398L189.434 382.113Z"/>
	<path fill="#DEDDDD" fill-opacity="0.96078432" d="M142.5 382.044L189.434 382.113L189.259 382.398L190.346 382.945L154.749 382.893C149.49 382.878 144.217 383.259 138.961 383.043C140.137 382.749 141.355 382.604 142.547 382.368L142.5 382.044Z"/>
	<path id="Back-bumper" fill="#DEDDDD" d="M129.236 364.208C132.49 362.876 136.228 362.457 139.725 362.206C144.765 361.845 149.885 362.017 154.938 362.014L179.633 362.007L205.461 362.009C210.445 362.01 215.514 361.824 220.485 362.14C224.081 362.369 228.216 362.75 231.594 364.027C232.556 365.434 232.019 376.35 232.02 378.699C228.732 379.698 224.296 379.781 221.822 380.64C209.104 381.547 196.125 380.994 183.363 381.001L159.221 381.013C148.225 381.018 140.061 381.327 129.211 378.826Q129.294 371.517 129.236 364.208ZM138.413 366.122C137.192 366.35 135.916 366.49 135.166 367.615C134.347 368.843 134.154 371.228 134.511 372.638C134.803 373.788 135.48 374.66 136.532 375.212C139.678 376.861 145.551 375.767 149.046 375.741C150.32 375.372 151.414 375.061 152.132 373.83C152.696 372.861 152.908 371.529 153.137 370.439C152.627 368.823 152.174 367.599 150.57 366.764C147.533 365.185 141.834 365.932 138.413 366.122ZM215.02 366.322C213.43 366.542 211.984 366.84 210.935 368.19C210.21 369.124 209.906 370.256 210.069 371.428C210.27 372.87 211.051 374.204 212.276 375.008C214.869 376.71 221.403 375.887 224.552 375.722C225.975 375.468 226.955 375.336 227.864 374.087C228.727 372.901 229.12 371.347 228.813 369.902C228.559 368.71 227.863 367.73 226.827 367.09C224.282 365.52 217.956 366.071 215.02 366.322Z"/>
	<path fill="#CECED0" d="M136.103 23.3648C139.705 22.9562 143.712 23.2266 147.344 23.2354L168.795 23.2646L210.626 23.3575C216.242 23.4219 221.835 23.2509 227.451 23.5308C229.041 23.61 232.845 23.6577 234.028 24.6904C236.266 26.6438 235.532 37.673 235.612 40.8733C235.653 42.514 235.544 44.5161 234.294 45.7291C232.579 47.3922 229.174 47.1072 226.938 47.1483Q197.194 46.9546 167.45 47.1299C156.623 47.2019 145.06 47.6936 134.302 47.2822C132.841 47.2263 130.257 47.183 129.044 46.3407C128.492 45.3469 128.318 44.412 128.222 43.2993C127.995 40.6576 128.471 38.0232 128.48 35.3834C128.489 32.6895 127.914 29.7866 128.329 27.1234C128.454 26.3195 128.776 25.513 129.332 24.9077C130.935 23.1613 133.936 23.4072 136.103 23.3648ZM141.697 25.1103C138.467 25.2468 131.706 25.5132 129.448 27.9487C128.486 28.9868 128.599 37.9223 128.767 39.587C128.869 40.5978 129.089 41.8326 129.948 42.4848C132.506 44.4263 139.676 44.6533 142.897 44.8506C148.957 45.2218 155.121 44.9983 161.194 44.9983L193.35 44.9926L211.196 45.0188C214.518 45.0259 218.171 45.3192 221.441 44.7845C224.074 44.5403 231.872 44.155 233.464 42.137C234.385 40.9683 234.288 31.105 233.986 29.3902C233.819 28.4414 233.568 27.8212 232.737 27.2797C230.231 25.6485 225.575 25.3405 222.59 25.1351C217.599 24.7917 212.506 24.9915 207.502 24.9929L181.62 25.001L156.093 25.0023C151.331 24.9998 146.446 24.7883 141.697 25.1103Z"/>
	<path d="M141.697 25.1103C146.446 24.7883 151.331 24.9998 156.093 25.0023L181.62 25.001L207.502 24.9929C212.506 24.9915 217.599 24.7917 222.59 25.1351C225.575 25.3405 230.231 25.6485 232.737 27.2797C233.568 27.8212 233.819 28.4414 233.986 29.3902C234.288 31.105 234.385 40.9683 233.464 42.137C231.872 44.155 224.074 44.5403 221.441 44.7845C218.171 45.3192 214.518 45.0259 211.196 45.0188L193.35 44.9926L161.194 44.9983C155.121 44.9983 148.957 45.2218 142.897 44.8506C139.676 44.6533 132.506 44.4263 129.948 42.4848C129.089 41.8326 128.869 40.5978 128.767 39.587C128.599 37.9223 128.486 28.9868 129.448 27.9487C131.706 25.5132 138.467 25.2468 141.697 25.1103ZM140.629 26.1023C137.029 26.3312 133.339 26.8759 130.001 28.2814C129.988 32.7553 129.842 37.2841 130.051 41.7508C133.853 43.4298 139.04 43.6743 143.181 43.9051C148.119 44.1803 153.149 43.9933 158.095 43.9874L184.392 43.9814L207.524 43.9861C212.672 43.9852 217.869 44.1402 223.002 43.6891C226.322 43.1884 229.729 43.1518 232.836 41.7872C233.166 37.3782 233.164 32.7554 233.023 28.3367C230.013 26.9177 226.595 26.4075 223.292 26.1637C218.142 25.7835 212.866 26.0023 207.702 26.0023L180.567 26.0096L154.87 26.0028C150.17 25.999 145.315 25.7658 140.629 26.1023Z"/>
	<path id="Front-bumper" fill="#DEDDDD" d="M140.629 26.1023C145.315 25.7658 150.17 25.999 154.87 26.0028L180.567 26.0096L207.702 26.0023C212.866 26.0023 218.142 25.7835 223.292 26.1637C226.595 26.4075 230.013 26.9177 233.023 28.3367C233.164 32.7554 233.166 37.3782 232.836 41.7872C229.729 43.1518 226.322 43.1884 223.002 43.6891C217.869 44.1402 212.672 43.9852 207.524 43.9861L184.392 43.9814L158.095 43.9874C153.149 43.9933 148.119 44.1803 143.181 43.9051C139.04 43.6743 133.853 43.4298 130.051 41.7508C129.842 37.2841 129.988 32.7553 130.001 28.2814C133.339 26.8759 137.029 26.3312 140.629 26.1023ZM135.434 29.4078C134.954 29.7052 134.838 29.7367 134.687 30.3149C134.193 32.2067 135.234 36.4003 136.287 37.9658C137.048 39.0981 139.229 39.4677 140.505 39.6186C145.052 40.1564 153.012 39.8957 157.704 39.6608L158.37 39.3737C158.482 37.8562 155.802 34.6005 154.757 33.3792C152.555 30.8063 150.085 29.5347 146.712 29.303C143.02 29.0494 139.118 29.0745 135.434 29.4078ZM217.17 29.3815C213.92 29.5124 211.513 29.8919 209.249 32.3956C207.349 34.4968 205.991 37.2241 204.82 39.7819Q211.191 39.6437 217.563 39.7403C220.197 39.7575 224.319 40.2931 226.338 38.246C228.222 36.3371 228.512 31.8618 228.596 29.3294Q222.883 29.2885 217.17 29.3815Z"/>
	<path  fill="#DEDDDD" d="M50.7299 56.0754C54.06 55.8364 57.6142 55.853 60.949 56.0017C62.4102 56.9102 63.4719 58.3405 64.9415 59.2119C67.4752 60.7142 71.1841 60.5386 74.0192 61.2994C75.7186 61.7555 76.8797 62.5241 77.7603 64.0664C79.9608 67.9204 80.9946 73.1101 82.2409 77.355C85.483 88.3975 88.4396 99.6279 91.1828 110.803C92.5786 116.49 93.6224 122.386 95.291 127.989C96.5599 132.25 99.1665 136.234 101.247 140.145Q104.059 145.491 106.408 151.055C112.58 165.795 118.367 180.99 123.037 196.267C124.719 201.772 126.605 207.557 127.316 213.287C127.888 217.892 127.703 222.738 127.722 227.379L127.828 247.148Q127.855 255.102 127.793 263.056C127.791 268.814 128.257 274.741 126.751 280.347C121.416 300.204 109.936 320.508 97.9849 337.125C96.7625 338.824 93.5084 343.801 91.7481 344.466C89.6527 345.258 87.352 345.223 85.1457 345.278C79.6943 345.414 72.4629 344.9 67.3405 346.597C66.1959 346.976 65.1168 347.668 64.0757 348.267C60.9947 349.724 56.6177 349.694 53.315 349.133C52.3286 348.965 51.3586 348.682 50.5293 348.102C49.2224 347.188 48.4231 345.616 47.2926 344.501C45.8668 343.095 44.0428 342.337 42.8531 340.655C42.2076 336.58 42.1564 319.251 42.991 315.372C50.5331 315.016 57.1684 314.16 62.758 308.48C67.4892 303.672 69.9866 297.547 69.9199 290.805C69.8573 284.481 67.4287 278.31 62.8524 273.892C56.9595 268.204 50.4371 266.913 42.5467 267.016C42.3419 264.34 42.4592 261.58 42.4538 258.894L42.439 243.622Q42.2318 222.366 42.2733 201.11L42.2399 158.47C42.2337 150.415 41.918 142.211 42.4632 134.174C48.4249 134.336 53.7381 133.636 58.8354 130.322Q59.3358 129.99 59.8193 129.634Q60.3028 129.278 60.7682 128.898Q61.2336 128.519 61.6797 128.117Q62.1259 127.715 62.5518 127.291Q62.9776 126.868 63.3822 126.424Q63.7867 125.98 64.1689 125.517Q64.5512 125.054 64.9102 124.573Q65.2692 124.091 65.6041 123.593Q65.939 123.094 66.249 122.58Q66.559 122.066 66.8433 121.537Q67.1276 121.008 67.3856 120.466Q67.6436 119.923 67.8746 119.369Q68.1057 118.815 68.3091 118.25Q68.5126 117.685 68.6881 117.111Q68.8635 116.536 69.0106 115.954Q69.1576 115.372 69.2758 114.783C70.5912 108.492 69.5447 102.134 65.9597 96.7487C62.378 91.3684 56.4287 87.1459 49.9583 86.24C47.5268 85.8995 45.0341 86.0327 42.6248 85.5432C42.4302 85.0845 42.3563 84.6989 42.3144 84.1986C42.0389 80.9097 41.6872 61.234 43.0855 59.6897C44.462 58.1693 48.6931 56.1712 50.7299 56.0754ZM73.331 116.638C73.2907 116.761 73.2487 116.882 73.2102 117.005C72.6919 118.654 72.6656 120.317 71.9875 121.969C69.9924 126.829 64.1586 131.716 59.6632 134.14C55.3716 136.455 50.7969 137.022 45.9988 137.055L45.9667 176.648C45.9682 185.376 45.811 194.139 45.9972 202.864C51.3177 204.101 56.6698 204.945 62.031 205.958L79.7469 209.425C87.1 210.796 94.4934 212.05 101.794 213.69C107.306 214.806 112.875 215.592 118.391 216.675C119.789 216.949 123.826 218.35 124.835 218.073L124.991 217.636C124.553 217.145 124.101 217.025 123.5 216.826C122.535 215.035 122.682 210.795 122.372 208.569C121.49 202.247 120.296 196.048 118.456 189.924C110.638 163.897 98.9032 146.271 81.8018 125.6C80.6213 124.173 75.0496 117.51 74.193 116.899C74.0267 116.78 73.5454 116.703 73.331 116.638ZM47.0338 206.85C47.0564 225.155 47.386 243.52 46.9536 261.818C48.1639 262.025 49.3867 262.199 50.5707 262.53C55.7514 263.905 61.1312 266.153 65.2532 269.629Q65.8601 270.152 66.4306 270.715C72.0237 276.192 74.185 281.585 74.2903 289.3C78.1032 287.257 82.1262 285.782 86.1083 284.126L110.45 273.896C115.084 271.937 119.724 270.245 124.168 267.853C124.371 267.205 124.312 266.408 124.332 265.73L125.09 266.102C124.931 261.199 125.114 256.278 125.005 251.371C125.368 243.024 125.087 234.487 125.005 226.123C124.889 226.784 124.754 227.341 124.489 227.959C123.877 226.611 124.415 224.071 124.182 222.496C124.173 222.431 124.161 222.366 124.15 222.301C123.324 221.894 122.369 221.66 121.492 221.378C112.334 219.504 103.136 217.88 93.9681 216.064C84.4815 214.185 75.0056 212.11 65.4556 210.578C59.3408 209.377 53.0793 208.348 47.0338 206.85ZM119.494 274.748C113.674 276.819 108.077 279.389 102.386 281.778C97.6015 283.786 92.6722 285.627 88.0336 287.955C88.0524 292.413 87.5361 299.569 88.5269 303.671C89.7023 303.541 90.4521 303.401 91.4337 302.675C94.757 300.216 97.7234 296.646 100.731 293.78Q107.176 287.759 113.471 281.582C115.642 279.481 117.932 277.473 119.902 275.177L119.843 274.843L119.494 274.748Z"/>
	<path d="M45.9629 262.907L45.964 221.647C45.9645 219.138 45.583 208.258 46.1342 206.535C46.1868 206.371 46.3384 206.257 46.4405 206.118C49.0182 205.676 63.6407 209.134 67.0508 209.8C70.8578 210.166 74.7651 211.16 78.5158 211.914L98.1881 215.869C103.947 217.017 109.728 218.017 115.482 219.195C117.835 219.676 120.346 220.043 122.634 220.762C123.455 220.926 124.255 221.117 125.061 221.345C125.067 222.932 125.13 224.541 125.005 226.123C124.889 226.784 124.754 227.341 124.489 227.959C123.877 226.611 124.415 224.071 124.182 222.496C124.173 222.431 124.161 222.366 124.15 222.301C123.324 221.894 122.369 221.66 121.492 221.378C112.334 219.504 103.136 217.88 93.9681 216.064C84.4815 214.185 75.0056 212.11 65.4556 210.578C59.3408 209.377 53.0793 208.348 47.0338 206.85C47.0564 225.155 47.386 243.52 46.9536 261.818C48.1639 262.025 49.3867 262.199 50.5707 262.53C55.7514 263.905 61.1312 266.153 65.2532 269.629Q65.8601 270.152 66.4306 270.715C72.0237 276.192 74.185 281.585 74.2903 289.3C78.1032 287.257 82.1262 285.782 86.1083 284.126L110.45 273.896C115.084 271.937 119.724 270.245 124.168 267.853C124.371 267.205 124.312 266.408 124.332 265.73L125.09 266.102L125.146 268.583C114.334 273.69 103.042 278.099 91.9823 282.67C87.9643 284.331 83.8664 285.905 79.8779 287.624C78.4934 288.22 77.2051 289.062 75.7938 289.594C75.2069 289.815 74.7046 289.989 74.0841 289.801C73.2282 288.641 73.1454 287.213 72.9732 285.831C72.0946 278.774 70.2083 275.563 65.0769 270.629C60.7738 266.92 54.9476 264.659 49.4943 263.374C48.3338 263.112 47.1445 263.025 45.9629 262.907Z"/>
	<path d="M48.9735 59.006C53.2847 58.9105 57.6318 58.8838 61.9419 59.0202C61.9737 59.8288 61.9648 60.7359 62.2877 61.4893C63.5715 64.4839 71.0508 65.0629 73.9816 66.182C74.1166 69.8924 74.5675 99.6103 73.66 100.925C73.0156 100.872 72.8817 100.49 72.4694 100.013C70.9079 96.6882 69.3321 93.2956 66.7494 90.6193C61.4746 85.1535 53.5128 82.0857 46.0257 81.9727C45.8048 75.3566 45.8778 68.622 46.0301 62.0035C46.9079 62.0076 47.9304 62.1442 48.7186 61.717C49.1962 60.9517 49.0039 59.8811 48.9735 59.006Z"/>
	<path id="Fender" fill="#DEDDDD" d="M50.0388 59.993C53.5949 60.1487 57.1693 59.926 60.7332 60.0771L62.0092 63.6969C65.3727 65.2421 69.2376 65.7219 72.7809 66.7867C73.2807 69.8815 72.9868 73.384 72.9845 76.5366C72.9791 83.8822 72.7763 91.2467 72.9161 98.5885L71.8374 96.6576C70.6027 94.119 69.071 91.6364 67.032 89.6638C62.0459 84.8396 53.9804 80.7739 47.004 80.8932Q47.0684 71.9617 46.9838 63.0304C47.916 62.9907 49.0326 63.2203 49.8322 62.6717C50.2605 61.8431 50.0901 60.8985 50.0388 59.993Z"/>
	<path d="M72.7314 300.581L73.6515 300.937C74.6095 302.393 74.1358 335.566 74.0511 340.026C61.9304 339.8 68.5348 340.754 61.5777 345.787L61.3343 345.961C58.679 346.151 56.0579 346.171 53.4058 345.934C52.4892 345.147 51.6592 344.249 50.8121 343.387C49.2638 341.371 47.7051 339.394 46.0187 337.49C45.6856 331.752 45.9167 325.791 45.9995 320.04C48.5598 319.974 51.0975 319.731 53.5852 319.097C60.2519 317.397 66.6772 312.359 70.0912 306.358C71.1069 304.573 71.5447 302.5 72.6232 300.751C72.6583 300.694 72.6953 300.638 72.7314 300.581Z"/>
	<path id="Back-left-fender" fill="#DEDDDD" d="M72.5828 302.941C73.4378 304.112 72.9801 334.687 73.0029 338.965C70.7835 338.935 68.5864 338.927 66.3689 339.054C64.8378 340.493 63.902 342.468 62.3691 343.881C60.291 345.796 56.2722 345.058 53.6593 344.973C52.5657 343.99 51.6294 342.956 50.6938 341.823C49.5065 340.244 48.2914 338.725 46.9986 337.231Q47.0871 329.165 46.9946 321.1C51.2219 321.096 55.5713 319.928 59.2893 317.937C64.6262 315.08 70.7986 308.774 72.5828 302.941Z"/>
	<path id="Back-door" fill="#DEDDDD" d="M47.0338 206.85C53.0793 208.348 59.3408 209.377 65.4556 210.578C75.0056 212.11 84.4815 214.185 93.9681 216.064C103.136 217.88 112.334 219.504 121.492 221.378C122.369 221.66 123.324 221.894 124.15 222.301C124.161 222.366 124.173 222.431 124.182 222.496C124.415 224.071 123.877 226.611 124.489 227.959C124.754 227.341 124.889 226.784 125.005 226.123C125.087 234.487 125.368 243.024 125.005 251.371C125.114 256.278 124.931 261.199 125.09 266.102L124.332 265.73C124.312 266.408 124.371 267.205 124.168 267.853C119.724 270.245 115.084 271.937 110.45 273.896L86.1083 284.126C82.1262 285.782 78.1032 287.257 74.2903 289.3C74.185 281.585 72.0237 276.192 66.4306 270.715Q65.8601 270.152 65.2532 269.629C61.1312 266.153 55.7514 263.905 50.5707 262.53C49.3867 262.199 48.1639 262.025 46.9536 261.818C47.386 243.52 47.0564 225.155 47.0338 206.85ZM88.1421 217.781C87.4966 221.391 88.0556 228.85 88.0712 232.824L88.1149 262.02C88.1203 267.723 88.3776 273.538 87.9441 279.221C91.5302 277.312 95.3974 276.066 99.1816 274.616C103.369 273.011 107.508 271.282 111.689 269.66Q116.308 267.819 120.994 266.156C121.192 252.433 120.817 238.702 121.026 224.984C117.144 224.338 113.286 223.315 109.448 222.443Q98.8358 219.926 88.1421 217.781Z"/>
	<path fill="#131114" d="M124.15 222.301C124.161 222.366 124.173 222.431 124.182 222.496C124.415 224.071 123.877 226.611 124.489 227.959C124.754 227.341 124.889 226.784 125.005 226.123C125.087 234.487 125.368 243.024 125.005 251.371C125.114 256.278 124.931 261.199 125.09 266.102L124.332 265.73C124.312 266.408 124.371 267.205 124.168 267.853C123.64 265.733 123.695 225.865 124.15 222.301Z"/>
	<path d="M73.331 116.638C73.5454 116.703 74.0267 116.78 74.193 116.899C75.0496 117.51 80.6213 124.173 81.8018 125.6C98.9032 146.271 110.638 163.897 118.456 189.924C120.296 196.048 121.49 202.247 122.372 208.569C122.682 210.795 122.535 215.035 123.5 216.826C124.101 217.025 124.553 217.145 124.991 217.636L124.835 218.073C123.826 218.35 119.789 216.949 118.391 216.675C112.875 215.592 107.306 214.806 101.794 213.69C94.4934 212.05 87.1 210.796 79.7469 209.425L62.031 205.958C56.6698 204.945 51.3177 204.101 45.9972 202.864C45.811 194.139 45.9682 185.376 45.9667 176.648L45.9988 137.055C50.7969 137.022 55.3716 136.455 59.6632 134.14C64.1586 131.716 69.9924 126.829 71.9875 121.969C72.6656 120.317 72.6919 118.654 73.2102 117.005C73.2487 116.882 73.2907 116.761 73.331 116.638ZM74.3443 118.899C71.6025 126.202 65.0823 132.841 57.9609 136.035C54.5088 137.584 50.7819 138.209 47.0189 138.242L47.0295 201.931C52.5178 203.476 58.269 204.125 63.8608 205.237Q81.1791 208.754 98.5563 211.966C106.267 213.612 114.067 214.76 121.785 216.357C122.042 197.118 112.618 172.562 102.986 156.125C97.9764 147.576 91.8248 139.197 85.5749 131.52C82.9178 128.256 80.2944 124.835 77.3566 121.82C76.4307 120.87 75.4291 119.645 74.3443 118.899Z"/>
	<path id="Front-door" fill="#DEDDDD" d="M74.3443 118.899C75.4291 119.645 76.4307 120.87 77.3566 121.82C80.2944 124.835 82.9178 128.256 85.5749 131.52C91.8248 139.197 97.9764 147.576 102.986 156.125C112.618 172.562 122.042 197.118 121.785 216.357C114.067 214.76 106.267 213.612 98.5563 211.966Q81.1791 208.754 63.8608 205.237C58.269 204.125 52.5178 203.476 47.0295 201.931L47.0189 138.242C50.7819 138.209 54.5088 137.584 57.9609 136.035C65.0823 132.841 71.6025 126.202 74.3443 118.899ZM88.1051 137.816C87.6948 145.474 88.0198 153.302 88.0253 160.977L88.016 207.129C91.1291 207.627 94.1803 208.485 97.2459 209.213C101.773 210.287 106.307 211.293 110.817 212.442C114.008 213.254 118.138 214.862 121.423 214.865C121.652 210.303 119.045 204.369 117.648 199.933C111.815 181.42 105.452 162.963 94.8122 146.566C93.0924 143.916 91.4162 141.143 89.2999 138.786C88.9385 138.383 88.6165 138.028 88.1051 137.816Z"/>
	<path fill="#DEDDDD" d="M302.67 55.579C305.697 55.2087 309.629 55.2546 312.476 56.4127C314.569 57.2639 316.241 58.1725 318.485 58.7134C319.271 62.5088 318.808 66.9922 318.8 70.8951Q318.777 78.4974 318.933 86.098C312.646 85.9266 307.107 86.6959 301.692 90.1969C296.493 93.5573 293.05 98.8915 291.783 104.92C290.488 111.079 291.211 117.327 294.711 122.636C298.542 128.447 304.075 132.376 310.964 133.534C313.43 133.949 315.906 133.976 318.37 134.489C318.489 134.701 318.525 134.74 318.596 135.01C319.226 137.391 318.773 150.195 318.835 153.514Q319.168 183.995 319.011 214.478C319.02 230.857 319.341 247.317 318.942 263.688C318.919 264.644 318.923 265.784 318.374 266.6C317.477 267.054 312.443 266.839 310.774 267.15C304.4 268.337 298.783 272.366 295.159 277.678C291.467 283.092 290.275 289.349 291.536 295.768C293.362 305.057 300.962 313.193 310.548 314.522C312.22 314.754 317.394 314.576 318.529 315.336C318.835 316.297 318.897 317.266 318.926 318.269C319.01 321.093 318.979 339.868 318.285 340.957C317.324 342.467 315.325 342.833 314.037 343.995C312.639 345.255 311.821 347.338 310.477 348.76C308.969 349.081 307.537 349.217 305.997 349.279C303.357 349.265 300.175 349.492 297.65 348.66C294.657 347.673 293.403 346.025 289.869 345.623C284.841 345.051 272.531 346.538 268.791 344.131C266.249 342.495 264.226 339.31 262.439 336.915C251.928 322.825 237.672 296.455 234.186 279.285C232.463 270.796 233.201 259.624 233.235 250.844L233.296 230.232C233.296 225.897 233.086 221.434 233.499 217.12C233.871 213.228 234.912 209.335 235.802 205.532C239.526 189.61 244.986 173.917 251.3 158.841C253.237 154.215 255.118 149.496 257.354 145.005C260.253 139.183 264.224 133.127 266.005 126.893C267.5 121.66 268.327 116.207 269.564 110.905C271.19 103.936 280.632 66.3674 283.319 62.7051C284.959 60.4703 292.628 60.4483 295.441 59.2218C298.82 57.7493 298.202 56.1731 302.67 55.579ZM286.934 116.723C281.214 121.224 275.653 126.104 270.981 131.726C252.632 153.804 239.428 190.595 235.953 218.979C235.944 219.052 235.937 219.125 235.929 219.199L236.07 220.146C236.902 220.28 237.769 220.356 238.542 220.703C240.458 220.937 249.296 218.037 251.86 217.421C264.829 214.304 277.796 211.694 290.884 209.138C290.474 209.038 290.114 208.909 289.726 208.743L289.615 207.97C298.104 206.671 306.717 205.813 315.069 203.774C315.421 194.043 315.046 184.172 315.043 174.423C315.04 162.309 315.342 150.132 315.018 138.028C306.931 137.868 300.471 135.449 294.825 129.55C291.175 125.736 289.25 121.363 286.934 116.723ZM290.884 209.138C277.796 211.694 264.829 214.304 251.86 217.421C249.296 218.037 240.458 220.937 238.542 220.703C237.747 220.846 236.658 220.888 236.086 221.495C235.854 222.305 235.856 223.062 235.844 223.896C236.384 227.462 235.973 231.594 235.974 235.232L235.955 256.223C235.937 260.367 235.747 264.556 235.993 268.692C246.033 273.275 256.56 277.076 266.816 281.178Q272.759 283.537 278.672 285.972C281.316 287.09 283.899 288.345 286.604 289.312C286.4 287.916 286.112 286.332 286.295 284.923C286.677 281.984 288.803 278.242 290.455 275.81C295.8 267.949 306.238 264.509 315.199 262.823C314.667 243.92 315.236 224.971 315.013 206.059C314.806 206.14 314.599 206.211 314.39 206.287C311.761 207.239 308.084 206.881 305.26 207.167Q298.032 207.861 290.884 209.138ZM240.653 274.416C245.758 280.559 252.175 285.945 257.937 291.487C261.43 294.847 264.793 298.733 268.507 301.818C269.228 302.417 270.54 303.484 271.505 303.543C271.765 303.559 271.998 303.493 272.248 303.429C272.476 303.174 272.648 303.014 272.769 302.69C273.513 298.009 273.107 292.715 273.143 287.952C268.232 286.405 263.333 284.243 258.598 282.213C255.47 280.871 242.983 274.419 240.653 274.416Z"/>
	<path d="M300.023 59.0077Q306.023 58.8874 312.023 59.0187C312.003 59.8868 311.881 60.8196 312.224 61.6328C312.917 62.1708 314.152 62.0171 315.006 62.0312C315.265 68.288 315.274 74.7462 315.043 81.002C312.812 81.267 310.63 81.9839 308.496 82.6612C302.145 84.6761 296.809 87.1813 292.423 92.3863C291.135 94.322 288.359 100.525 286.662 101.235C286.233 99.4553 287.021 96.7337 287.035 94.8205C287.104 84.943 286.884 75.0611 287.004 65.1804C287.216 65.1096 287.429 65.0451 287.64 64.9746C290.904 63.8849 296.638 63.8917 299.276 62.3303C299.901 61.3735 299.904 60.1169 300.023 59.0077Z"/>
	<path id="Front-right-fender" fill="#DEDDDD" d="M301.128 60.0006L310.922 60.0252C310.921 60.9334 310.866 61.7743 311.204 62.6341C311.896 63.2573 313.129 63.1677 314.027 63.2388Q313.937 71.5226 314.023 79.8062C306.735 82.0001 299.504 84.2335 293.826 89.5581C291.521 91.9044 289.816 94.6829 288.03 97.4252C288.679 91.543 287.096 69.8178 288.405 66.077C290.517 64.7071 297.179 64.1259 299.826 63.9477C300.251 62.6151 300.778 61.3666 301.128 60.0006Z"/>
	<path d="M287.24 300.621C287.416 300.742 287.623 300.827 287.769 300.983C288.42 301.679 288.991 303.884 289.464 304.866Q290.355 306.758 291.56 308.468Q292.764 310.177 294.246 311.653C300.548 317.974 306.43 319.025 314.998 319.019C315.193 325.606 315.051 332.217 315.161 338.809C312.959 339.198 312.1 339.482 310.439 341.079L308.368 343.329L307.943 345.999C305.112 346.118 302.267 346.163 299.441 345.944C297.57 344.436 296.63 342.407 294.971 340.812C293.548 339.443 288.94 340.049 286.994 340.004C286.621 333.387 286.967 326.534 286.959 319.896C286.955 316.042 286.421 303.753 287.24 300.621Z"/>
	<path id="Back-right-fender" fill="#DEDDDD" d="M288.072 304.9C288.415 305.084 288.64 305.268 288.809 305.631C290.034 308.257 291.451 310.1 293.464 312.156C299.357 318.174 305.729 320.199 313.982 320.265Q313.914 328.924 314.047 337.583C312.259 338.253 310.883 339.361 309.415 340.551C308.278 341.929 307.308 343.343 306.585 344.98C304.255 345.032 301.95 345.029 299.621 344.929C297.564 343.253 296.537 340.743 294.519 339.023C292.367 338.869 290.188 338.964 288.032 338.99C288.086 327.649 288.36 316.235 288.072 304.9Z"/>
	<path d="M290.884 209.138Q298.032 207.861 305.26 207.167C308.084 206.881 311.761 207.239 314.39 206.287C314.599 206.211 314.806 206.14 315.013 206.059C315.236 224.971 314.667 243.92 315.199 262.823C306.238 264.509 295.8 267.949 290.455 275.81C288.803 278.242 286.677 281.984 286.295 284.923C286.112 286.332 286.4 287.916 286.604 289.312C283.899 288.345 281.316 287.09 278.672 285.972Q272.759 283.537 266.816 281.178C256.56 277.076 246.033 273.275 235.993 268.692C235.747 264.556 235.937 260.367 235.955 256.223L235.974 235.232C235.973 231.594 236.384 227.462 235.844 223.896C235.856 223.062 235.854 222.305 236.086 221.495C236.658 220.888 237.747 220.846 238.542 220.703C240.458 220.937 249.296 218.037 251.86 217.421C264.829 214.304 277.796 211.694 290.884 209.138ZM307.391 208.106C300.626 208.557 293.84 209.744 287.17 210.947C275.428 213.066 263.895 215.684 252.269 218.337C247.177 219.499 242.121 221.408 236.946 222.12Q237.132 238.008 237.043 253.897C237.039 258.552 236.784 263.332 237.054 267.971C241.72 270.624 250.582 273.728 255.817 275.712L284.57 287.201C286.956 278.258 290.794 272.047 298.917 267.327C303.64 264.583 308.789 263.255 314.018 261.866L313.972 208.006C311.78 207.988 309.577 207.915 307.391 208.106Z"/>
	<path id="Back-right-door" fill="#DEDDDD" d="M307.391 208.106C309.577 207.915 311.78 207.988 313.972 208.006L314.018 261.866C308.789 263.255 303.64 264.583 298.917 267.327C290.794 272.047 286.956 278.258 284.57 287.201L255.817 275.712C250.582 273.728 241.72 270.624 237.054 267.971C236.784 263.332 237.039 258.552 237.043 253.897Q237.132 238.008 236.946 222.12C242.121 221.408 247.177 219.499 252.269 218.337C263.895 215.684 275.428 213.066 287.17 210.947C293.84 209.744 300.626 208.557 307.391 208.106ZM272.386 217.509C266.836 219.113 261.048 220.193 255.421 221.539C250.39 222.742 245.179 224.33 240.074 225.112C240.614 238.745 239.471 252.492 240.279 266.112C243.512 267.408 246.759 268.797 250.065 269.892C253.19 271.168 271.093 278.786 272.88 278.695C273.666 276.496 273.18 269.763 273.168 266.961L273.027 232.861C273.022 228.176 272.567 222.364 273.116 217.774C272.771 217.503 272.874 217.499 272.386 217.509Z"/>
	<path d="M286.934 116.723C289.25 121.363 291.175 125.736 294.825 129.55C300.471 135.449 306.931 137.868 315.018 138.028C315.342 150.132 315.04 162.309 315.043 174.423C315.046 184.172 315.421 194.043 315.069 203.774C306.717 205.813 298.104 206.671 289.615 207.97L289.726 208.743C290.114 208.909 290.474 209.038 290.884 209.138C277.796 211.694 264.829 214.304 251.86 217.421C249.296 218.037 240.458 220.937 238.542 220.703C237.769 220.356 236.902 220.28 236.07 220.146L235.929 219.199C235.937 219.125 235.944 219.052 235.953 218.979C239.428 190.595 252.632 153.804 270.981 131.726C275.653 126.104 281.214 121.224 286.934 116.723ZM286.488 118.225C263.238 135.021 248.821 168.093 241.797 195.118C240.577 199.812 239.499 204.618 238.597 209.383C237.989 212.598 237.563 215.856 236.79 219.037C244.054 215.991 251.322 214.178 258.934 212.298C270.322 209.576 282.097 207.891 293.687 206.253C300.038 205.356 308.013 204.861 313.988 202.858L313.973 161.943C313.971 154.401 313.833 146.827 314.025 139.289C304.63 138.257 298.064 135.342 292.024 127.764C290.358 125.674 289.227 123.608 288.099 121.201C287.722 120.399 287.205 118.729 286.488 118.225Z"/>
	<path fill="#CECED0" d="M236.07 220.146C239.701 219.062 243.138 217.417 246.779 216.354C256.451 213.533 266.361 211.611 276.288 209.971C280.713 209.24 285.152 208.411 289.615 207.97L289.726 208.743C290.114 208.909 290.474 209.038 290.884 209.138C277.796 211.694 264.829 214.304 251.86 217.421C249.296 218.037 240.458 220.937 238.542 220.703C237.769 220.356 236.902 220.28 236.07 220.146Z"/>
	<path id="Front-right-door" fill="#DEDDDD" d="M286.488 118.225C287.205 118.729 287.722 120.399 288.099 121.201C289.227 123.608 290.358 125.674 292.024 127.764C298.064 135.342 304.63 138.257 314.025 139.289C313.833 146.827 313.971 154.401 313.973 161.943L313.988 202.858C308.013 204.861 300.038 205.356 293.687 206.253C282.097 207.891 270.322 209.576 258.934 212.298C251.322 214.178 244.054 215.991 236.79 219.037C237.563 215.856 237.989 212.598 238.597 209.383C239.499 204.618 240.577 199.812 241.797 195.118C248.821 168.093 263.238 135.021 286.488 118.225ZM272.454 137.916C257.512 157.756 250.627 176.245 243.618 199.772C242.84 202.384 239.967 212.527 240.004 214.64C240.008 214.894 240.063 214.973 240.156 215.177C240.365 215.153 240.615 215.158 240.805 215.067C251.475 212.058 262.313 210.03 273.037 207.335C272.996 199.42 273.469 140.081 272.652 138.104L272.454 137.916Z"/>
	<path fill="#DEDDDD" d="M156.691 348.27C150.19 347.76 130.064 344.767 125.936 340.165C124.57 338.641 124.791 335.819 124.96 333.922C126.264 319.342 133.036 306.042 136.294 291.925C139.434 278.317 138.9 264.863 139.039 251.035C139.138 241.209 139.401 229.92 138.852 220.204C137.919 203.653 133.25 187.118 128.956 171.191C126.779 163.117 124.402 154.98 123.224 146.689C122.05 138.423 122.416 130.599 122.811 122.316C123.047 117.396 123.219 112.501 123.607 107.588C124.01 102.489 124.682 97.4324 125.151 92.3446C125.763 85.7165 126.635 73.1857 128.489 67.2545C129.05 65.4601 129.754 64.051 131.233 62.8357C143.778 52.5243 193.348 54.6963 209.628 56.4528C215.858 57.1251 228.617 59.4108 232.686 64.3592C233.226 65.0155 233.691 65.7462 233.918 66.5708C235.391 71.921 235.603 78.5801 236.173 84.124Q238.466 104.856 239.285 125.699C239.575 132.195 240.181 138.916 239.431 145.397C238.86 150.327 237.233 155.333 235.913 160.114C233.475 168.946 230.797 177.781 228.71 186.7C226.526 196.036 224.501 205.365 223.637 214.933C223.14 220.441 223.217 226.039 223.179 231.566Q223.052 243.494 223.141 255.422C223.176 263.125 222.664 270.955 223.275 278.639Q223.927 286.612 226.072 294.318C228.864 304.056 239.517 329.776 236.714 338.785C236.415 339.747 235.854 340.448 235.065 341.061C226.17 347.974 183.959 350.041 171.349 349.142C168.532 349.136 165.216 349.399 162.477 348.797L162.35 348.738C160.466 348.626 158.555 348.574 156.691 348.27ZM176.177 131.364C167.51 131.673 134.236 134.372 129.02 139.988C128.603 140.438 128.496 140.728 128.549 141.353C128.683 142.945 133.317 155.602 134.219 158.56C137.499 169.312 139.843 180.344 141.944 191.377C143.273 198.355 144.867 205.957 144.873 213.087C149.801 212.713 154.864 212.935 159.808 212.937L186.625 212.949L206.232 212.944C209.689 212.934 213.256 212.648 216.692 213.02C216.768 213.028 216.843 213.034 216.919 213.041C217.068 206.899 218.24 200.758 219.329 194.721Q222.57 176.356 227.815 158.46C229.631 152.474 232.146 146.596 233.711 140.555C231.058 138.887 228.503 137.489 225.494 136.524C214.226 132.911 188.255 130.943 176.177 131.364ZM165.078 272.875L152.085 272.978C149.65 273.001 147.088 273.186 144.669 272.915C145.059 282.758 142.907 293.132 139.427 302.311C138.034 305.984 136.122 309.779 135.052 313.545C137.292 314.926 139.629 316.145 142.122 317.005C156.928 322.109 181.87 322.36 197.469 320.971C207.882 319.823 218.774 319.819 227.407 313.073C221.337 301.254 216.877 286.226 216.953 272.845C211.457 273.262 205.769 272.967 200.25 272.962L165.078 272.875ZM162.477 348.797C165.216 349.399 168.532 349.136 171.349 349.142C171.246 349.076 171.148 349.001 171.04 348.944C169.462 348.112 164.203 348.204 162.477 348.797ZM156.691 348.27C158.555 348.574 160.466 348.626 162.35 348.738C162.367 348.469 162.377 348.638 162.22 348.247C160.52 347.957 158.327 347.619 156.691 348.27Z"/>
	<path fill="#DEDDDD" fill-opacity="0.97254902" d="M156.691 348.27C158.327 347.619 160.52 347.957 162.22 348.247C162.377 348.638 162.367 348.469 162.35 348.738C160.466 348.626 158.555 348.574 156.691 348.27Z"/>
	<path fill="#DEDDDD" fill-opacity="0.96078432" d="M162.477 348.797C164.203 348.204 169.462 348.112 171.04 348.944C171.148 349.001 171.246 349.076 171.349 349.142C168.532 349.136 165.216 349.399 162.477 348.797Z"/>
	<path d="M228.314 317.933C228.439 317.96 228.569 317.97 228.689 318.014C229.6 318.35 230.36 320.22 230.657 321.093C231.776 324.379 234.144 336.157 232.848 338.857C230.148 337.838 229.341 338.927 226.907 339.969C220.867 342.556 214.332 344.083 207.901 345.32C199.234 346.988 188.148 348.202 179.314 348.072C175.43 348.015 171.603 347.515 167.75 347.053C156.618 345.718 146.133 343.545 135.689 339.378C134.349 338.805 129.902 337.603 129.388 337.25C128.429 335.642 128.929 332.484 129.077 330.657C129.255 328.439 130.218 320.043 131.646 318.829C133.909 318.712 136.971 320.498 139.118 321.268C146.469 323.903 154.751 324.945 162.488 325.729C181.593 327.667 203 327.675 221.261 321.064C223.676 320.19 225.996 319.032 228.314 317.933Z"/>
	<path id="Trunk" fill="#DEDDDD" d="M228.136 319.024C228.281 319.051 228.603 319.272 228.737 319.349C231.221 323.099 232.018 332.159 232.002 336.702C229.831 337.499 227.744 338.512 225.608 339.398C216.422 343.207 206.085 344.999 196.215 345.896C174.683 347.855 155.007 346.259 134.81 337.891Q132.457 336.966 130.115 336.016C129.743 330.495 130.613 325.023 132.216 319.749Q135.578 321.089 138.991 322.295C146.719 324.962 155.025 326.1 163.124 326.936C184.712 329.163 208.264 328.683 228.136 319.024Z"/>
	<path d="M143.919 216.013C168.017 215.894 192.169 215.697 216.263 216.012C216.399 223.418 214.814 230.836 214.248 238.211C213.877 243.043 214.771 247.462 215.138 252.224C215.42 255.876 215.692 259.484 216.062 263.13C216.216 264.655 216.214 266.274 216.543 267.77C216.616 268.102 216.686 268.408 216.706 268.748C216.712 268.844 216.715 268.941 216.72 269.037L145.87 269.018L145.708 268.777L145.479 268.788L145.368 268.998L144.288 268.916L144.109 268.618C144.44 268.231 144.697 267.905 144.794 267.394C144.995 266.335 144.923 265.165 145.023 264.083C145.318 260.881 145.716 257.732 145.899 254.515C146.141 250.239 146.768 246.005 146.77 241.716C146.773 235.788 145.854 229.879 145.297 223.986C145.091 221.807 145.348 217.98 144.057 216.193C144.012 216.132 143.965 216.073 143.919 216.013Z"/>
	<path id="Roof" fill="#DEDDDD" d="M145.998 217.044L215.032 217.048C215.018 225.413 213.031 233.719 213.013 242.077C213.007 244.859 213.472 247.64 213.747 250.405C213.964 252.573 213.972 254.756 214.173 256.924C214.517 260.636 215.026 264.228 215.041 267.971L146.018 268.014C145.879 259.295 147.928 250.48 148.003 241.758C148.075 233.532 146.181 225.3 145.998 217.044Z"/>
	<path d="M167.642 57.1056C167.676 57.1024 167.71 57.0981 167.744 57.096C171.999 56.8296 176.309 56.9314 180.572 56.9313C184.263 56.9311 188.008 56.8187 191.694 57.0266C200.77 57.5387 221.519 59.9538 228.289 65.9402C229.19 66.7367 229.718 67.52 230.061 68.6733C231.728 74.2657 232.089 82.5708 232.646 88.4607C234.145 104.332 235.119 120.225 236.214 136.123C225.003 130.153 206.949 127.891 194.266 126.92C189.123 126.108 184.054 126.201 178.863 126.198C174.888 126.195 170.876 126.054 166.905 126.233Q158.575 126.656 150.346 128.015Q142.116 129.374 134.092 131.65C131.434 132.415 128.089 133.074 125.768 134.583C125.487 134.766 125.486 134.72 125.164 134.707L125.28 134.107C125.183 133.968 125.842 130.145 125.88 129.591C126.056 127.031 125.947 124.454 126.114 121.891C126.471 116.424 127.121 110.919 127.65 105.462C128.127 100.557 128.468 95.6565 129.015 90.7532Q129.688 84.5166 130.564 78.3053C131.182 73.9541 131.933 69.6597 131.985 65.2549C132.243 65.205 132.496 65.1463 132.753 65.0912C135.731 64.4516 138.378 62.62 141.305 61.7315C149.747 59.1688 158.84 57.6968 167.642 57.1056Z"/>
	<path id="Hood" fill="#DEDDDD" d="M168.991 58.1077C184.578 57.2772 215.82 57.904 228.564 67.1873C230.89 75.936 231.255 85.3633 232.03 94.361C232.651 101.578 233.381 108.811 233.836 116.038C234.003 118.697 233.908 121.369 234.072 124.028C234.283 127.447 234.804 130.833 234.966 134.259C220.293 128.906 208.929 126.951 193.498 125.684C188.754 124.832 183.832 124.961 179.031 124.969C160.613 124.999 144.554 126.876 126.966 132.795C127.206 128.902 127.097 124.988 127.332 121.095C127.92 111.314 128.934 101.443 129.989 91.6934Q130.736 84.6882 131.689 77.7081C132.225 73.979 133.021 70.1692 133.119 66.4004C135.658 65.2352 138.123 63.9458 140.763 63.014C149.466 59.9422 159.778 58.5221 168.991 58.1077Z"/>
</svg>
